<svg xmlns="http://www.w3.org/2000/svg" width="21.492" height="21.492" viewBox="0 0 21.492 21.492">
  <path id="Icon_metro-youtube" data-name="Icon metro-youtube" d="M8.724,1.928,7.272,4.808,5.82,1.928H3.968L6.585,6.489,6.6,6.48V9.987H7.944V6.48l.015.009,2.617-4.561Zm3.921,2.686a.681.681,0,0,1,.672.672V7.973a.672.672,0,1,1-1.343,0V5.286A.681.681,0,0,1,12.645,4.615Zm0-1.343A2.021,2.021,0,0,0,10.63,5.286V7.973a2.015,2.015,0,1,0,4.03,0V5.286a2.021,2.021,0,0,0-2.015-2.015Zm6.045,0V8.56c-.586.489-1.343.784-1.343-.958V3.271H16v4.6h0c.021,1.11.255,3.11,2.684,1.484v.629h1.343V3.271H18.69ZM20.7,16.7a.672.672,0,0,0-.672.672v.672h1.343v-.672A.672.672,0,0,0,20.7,16.7Zm-6.045.672V20.9c.455.455,1.343.5,1.343-.168V17.585C16,16.914,15.332,16.7,14.66,17.375Zm9.293-3.242a2.793,2.793,0,0,0-2.746-2.693c-1.465-.073-4.816-.109-7.76-.109s-6.533.036-8,.109A2.793,2.793,0,0,0,2.7,14.133c-.088,1.577-.132,2.148-.132,2.936s.044,1.971.132,3.547A2.793,2.793,0,0,0,5.449,23.31c1.465.073,5.054.109,8,.109s6.3-.036,7.76-.109a2.793,2.793,0,0,0,2.746-2.693q.11-1.971.11-3.547c0-1.051-.037-1.623-.11-2.936ZM6.6,22.077H5.257V15.36H3.914V14.017h4.03V15.36H6.6Zm5.373,0H10.63v-.629c-2.554,1.433-2.664.046-2.684-1.064h0V16.7H9.287v3.7c0,.812.757.733,1.343.244V16.7h1.343Zm5.373-1.362c0,1.4-1.438,1.813-2.686.722v.641H13.317V14.017H14.66V16.2c1.343-1.343,2.686-.84,2.686.5Zm5.373-2.667v.672H20.033v1.343a.672.672,0,1,0,1.343,0V19.39h1.343v.672a2.015,2.015,0,1,1-4.03,0V17.375a2.015,2.015,0,1,1,4.03,0v.672Z" transform="translate(-2.571 -1.928)" fill="#fff"/>
</svg>
