<svg xmlns="http://www.w3.org/2000/svg" width="23.116" height="18.811" viewBox="0 0 23.116 18.811">
  <path id="Icon_ionic-logo-twitter" data-name="Icon ionic-logo-twitter" d="M24.53,6.729a9.588,9.588,0,0,1-2.724.749,4.759,4.759,0,0,0,2.087-2.626A9.424,9.424,0,0,1,20.88,6a4.741,4.741,0,0,0-8.205,3.243,4.643,4.643,0,0,0,.122,1.083A13.44,13.44,0,0,1,3.02,5.367a4.752,4.752,0,0,0,1.474,6.339,4.632,4.632,0,0,1-2.155-.593v.059a4.747,4.747,0,0,0,3.806,4.654,4.774,4.774,0,0,1-1.249.167A4.474,4.474,0,0,1,4,15.9a4.75,4.75,0,0,0,4.433,3.3,9.509,9.509,0,0,1-5.893,2.033,9.614,9.614,0,0,1-1.132-.069,13.257,13.257,0,0,0,7.26,2.146A13.414,13.414,0,0,0,22.178,9.8c0-.206,0-.411-.015-.612A9.654,9.654,0,0,0,24.53,6.729Z" transform="translate(-1.413 -4.5)" fill="#fff"/>
</svg>
