<svg xmlns="http://www.w3.org/2000/svg" width="22.901" height="22.901" viewBox="0 0 22.901 22.901">
  <g id="Icon_feather-instagram" data-name="Icon feather-instagram" transform="translate(1 1)">
    <path id="Path_2875" data-name="Path 2875" d="M8.225,3h10.45A5.225,5.225,0,0,1,23.9,8.225v10.45A5.225,5.225,0,0,1,18.676,23.9H8.225A5.225,5.225,0,0,1,3,18.676V8.225A5.225,5.225,0,0,1,8.225,3Z" transform="translate(-3 -3)" fill="none" stroke="#fff" stroke-linecap="round" stroke-linejoin="round" stroke-width="2"/>
    <path id="Path_2876" data-name="Path 2876" d="M20.38,15.5a4.18,4.18,0,1,1-3.522-3.522A4.18,4.18,0,0,1,20.38,15.5Z" transform="translate(-5.749 -5.71)" fill="none" stroke="#fff" stroke-linecap="round" stroke-linejoin="round" stroke-width="2"/>
    <path id="Path_2877" data-name="Path 2877" d="M26.25,9.75h0" transform="translate(-10.052 -5.047)" fill="none" stroke="#fff" stroke-linecap="round" stroke-linejoin="round" stroke-width="2"/>
  </g>
</svg>
