<svg xmlns="http://www.w3.org/2000/svg" width="49.278" height="58.363" viewBox="0 0 49.278 58.363">
  <g id="Group_1" data-name="Group 1" transform="translate(-521.038 -192)">
    <path id="Path_1" data-name="Path 1" d="M556.7,192a27.113,27.113,0,0,0-3.85,1.13c-6.263,2.86-9.491,7.8-9.637,14.69-.085,4.024-.02,8.052-.022,12.078v.74a1.953,1.953,0,0,1-.3-.145,9.177,9.177,0,0,0-5.633-1.982c-2.464-.029-4.928-.011-7.392-.012a2.575,2.575,0,0,0-.29.04V225.1a10.511,10.511,0,0,0-7.791,2.2V214.848c.242,0,.481,0,.72,0a36.934,36.934,0,0,0,4.821-.152,9.337,9.337,0,0,0,8.032-9.04c.118-2.595.021-5.2.021-7.906-1.753,0-3.487-.008-5.221,0a15.841,15.841,0,0,0-5.126.445l-.127-.18c.97-.994,1.885-2.051,2.921-2.97a11.75,11.75,0,0,1,6.816-2.956,1.876,1.876,0,0,0,.324-.09Z" transform="translate(-0.636)" fill="#fff"/>
    <path id="Path_2" data-name="Path 2" d="M704.172,408q-.014-4.5-.028-9c0-.416,0-.832,0-1.339.215.137.369.224.512.328a9.143,9.143,0,0,0,5.4,1.822c2.445.017,4.89.008,7.335.007a2.813,2.813,0,0,0,.319-.034c.031-.052.067-.084.067-.116-.017-2.809.086-5.626-.085-8.426a9.383,9.383,0,0,0-8.414-8.432c-1.471-.112-2.954-.064-4.431-.088-.205,0-.411,0-.66,0v-3.565c2.912-.145,5.956.42,8.686-1.268a9.853,9.853,0,0,0,2.825,3.432,9.182,9.182,0,0,0,5.474,1.944c1.438.027,2.876.005,4.367.005.019.2.048.358.048.52q0,11.935,0,23.87c0,.113-.018.226-.027.339h-3.413v-4.33h-5.575V408H713.16v-4.31h-5.575V408Z" transform="translate(-155.276 -157.635)" fill="#fff"/>
    <path id="Path_3" data-name="Path 3" d="M521.69,488.768v-8.179c.229,0,.446,0,.663,0a36.153,36.153,0,0,0,4.821-.139,9.289,9.289,0,0,0,7.8-6.9c.034-.107.056-.217.107-.416,2.553,1.263,5.281.742,7.978.889a4.01,4.01,0,0,1,.051.449q0,6.979,0,13.958c0,.113-.018.226-.028.339h-3.413v-4.33h-5.575v4.33h-3.413v-4.31H525.1v4.31Z" transform="translate(-0.553 -238.405)" fill="#fff"/>
    <path id="Path_4" data-name="Path 4" d="M710.169,229.9a10.406,10.406,0,0,0-7.784-2.238v-4.169h-.667c-2.161,0-4.323.021-6.484-.005a9.524,9.524,0,0,0-7.9,3.672,1.472,1.472,0,0,1-.143.131c-.4-.648-.8-1.283-1.183-1.933a.736.736,0,0,1-.029-.433,12.168,12.168,0,0,1,13.4-10.322,12.036,12.036,0,0,1,10.784,11.9C710.188,227.578,710.169,228.658,710.169,229.9Z" transform="translate(-139.861 -19.094)" fill="#fff"/>
    <path id="Path_5" data-name="Path 5" d="M704.2,306.293a4.406,4.406,0,0,1-.04-.472,38.6,38.6,0,0,1,.164-4.886,5.894,5.894,0,0,1,5.673-4.853c1.437-.043,2.877-.008,4.4-.008,0,.272,0,.512,0,.752-.007,1.215.05,2.436-.036,3.646a6,6,0,0,1-5.767,5.8C707.142,306.378,705.681,306.293,704.2,306.293Z" transform="translate(-155.287 -88.245)" fill="#fff"/>
    <path id="Path_6" data-name="Path 6" d="M704.144,432.559a40.949,40.949,0,0,1,5.225.041,5.821,5.821,0,0,1,4.926,5.365c.116,1.544.021,3.1.021,4.657-.032.02-.063.056-.094.055a39.579,39.579,0,0,1-5.159-.135,5.878,5.878,0,0,1-4.912-5.74C704.109,435.382,704.144,433.958,704.144,432.559Z" transform="translate(-155.265 -203.939)" fill="#fff"/>
    <path id="Path_7" data-name="Path 7" d="M531.438,252.448a44.926,44.926,0,0,1-.323,5.517,5.8,5.8,0,0,1-5.526,4.666c-1.469.066-2.944.012-4.551.012a45.894,45.894,0,0,1,.266-5.48,5.825,5.825,0,0,1,5.442-4.7C528.253,252.385,529.766,252.448,531.438,252.448Z" transform="translate(0 -51.24)" fill="#fff"/>
    <path id="Path_8" data-name="Path 8" d="M605.588,399.161a43.414,43.414,0,0,1-5.383-.26,5.8,5.8,0,0,1-4.777-5.492c-.088-1.491-.016-2.991-.016-4.506a.845.845,0,0,1,.218-.062c1.459.008,2.922-.042,4.376.044a6,6,0,0,1,5.57,5.683C605.642,396.043,605.588,397.523,605.588,399.161Z" transform="translate(-63.047 -166.918)" fill="#fff"/>
    <path id="Path_9" data-name="Path 9" d="M521.539,442.068a42.538,42.538,0,0,1,.035-5.007,6.039,6.039,0,0,1,6.176-5.238c.586-.009,1.294-.188,1.724.074.386.235.431.99.691,1.482.415.784.892,1.534,1.325,2.309a1.231,1.231,0,0,1,.19.615,6.054,6.054,0,0,1-5.862,5.757C524.4,442.105,522.983,442.068,521.539,442.068Z" transform="translate(-0.372 -203.316)" fill="#fff"/>
    <path id="Path_10" data-name="Path 10" d="M790.257,333.532a48.918,48.918,0,0,1-5.238-.21,5.655,5.655,0,0,1-4.489-3.68.792.792,0,0,1,.031-.66,9.8,9.8,0,0,0,1.951-5.428,2.378,2.378,0,0,1,.045-.273c4.539-.6,7.3,2.088,7.668,5.293A44.964,44.964,0,0,1,790.257,333.532Z" transform="translate(-220.005 -111.255)" fill="#fff"/>
  </g>
</svg>
